<?xml version="1.0" encoding="UTF-8"?>
<svg version="1.1" xmlns="http://www.w3.org/2000/svg" width="1380" height="1380">
<path d="M0 0 C-10.76996359 8.3296807 -21.66472123 16.44769577 -32.73388672 24.375 C-36.49658875 27.07318409 -40.24762468 29.78748371 -44 32.5 C-45.50258268 33.58466518 -47.00518685 34.6693006 -48.5078125 35.75390625 C-51.48467399 37.90357477 -54.45836838 40.05752177 -57.4296875 42.21484375 C-67.6648633 49.63965641 -77.98363736 56.93627608 -88.36083984 64.16113281 C-91.04105432 66.0286051 -93.71800403 67.90068519 -96.39453125 69.7734375 C-133.76994821 95.89409397 -171.75259605 121.17641558 -210 146 C-211.52477701 146.99212998 -213.04951909 147.98431366 -214.57421875 148.9765625 C-225.06275128 155.79205869 -235.61941444 162.50015178 -246.17822266 169.20605469 C-248.93707795 170.9599973 -251.69356622 172.71759309 -254.44921875 174.4765625 C-275.41412276 187.85427587 -296.53355588 200.97547315 -317.7265625 213.98828125 C-320.96541586 215.97874602 -324.20186964 217.97305098 -327.4375 219.96875 C-349.19904862 233.38870227 -371.0289904 246.68097398 -393.03131104 259.70214844 C-402.56029894 265.34215741 -412.04725798 271.04568918 -421.5 276.8125 C-452.75715149 295.87857575 -452.75715149 295.87857575 -461 300 C-461.66 324.75 -462.32 349.5 -463 375 C-455.41 371.04 -447.82 367.08 -440 363 C-435.06731335 360.45431051 -430.13455289 357.90937505 -425.19598389 355.37521362 C-422.24680283 353.86185811 -419.29850539 352.34678423 -416.35012817 350.8318634 C-414.81930486 350.0453168 -413.28844165 349.25884781 -411.75753784 348.47245789 C-403.96021498 344.46690501 -396.16728025 340.45285151 -388.375 336.4375 C-387.00862858 335.7334754 -385.64225488 335.02945522 -384.27587891 334.32543945 C-381.54815156 332.91997141 -378.82045423 331.51444511 -376.09277344 330.10888672 C-369.91695096 326.92658116 -363.74071492 323.74507838 -357.56451416 320.56350708 C-354.12632622 318.79237018 -350.68816442 317.02118255 -347.25 315.25 C-345.87500013 314.54166642 -344.50000013 313.83333309 -343.125 313.125 C-342.444375 312.774375 -341.76375 312.42375 -341.0625 312.0625 C-317 299.66666667 -292.9375 287.27083333 -268.875 274.875 C-268.19439514 274.52438507 -267.51379028 274.17377014 -266.81256104 273.81253052 C-265.43735859 273.10409351 -264.06215514 272.39565845 -262.68695068 271.68722534 C-259.25253989 269.91799419 -255.81814646 268.14872934 -252.38378906 266.37939453 C-246.15942955 263.17273014 -239.93493841 259.9663225 -233.70980835 256.76115417 C-220.00872667 249.70677026 -206.31039178 242.64728132 -192.625 235.5625 C-179.78326233 228.9149706 -166.9253284 222.29918868 -154.0645752 215.6885376 C-152.96139954 215.12148102 -152.96139954 215.12148102 -151.8359375 214.54296875 C-151.10016479 214.1647699 -150.36439209 213.78657104 -149.60632324 213.39691162 C-141.8602653 209.4148732 -134.11733728 205.42676662 -126.375 201.4375 C-125.35992371 200.9144931 -125.35992371 200.9144931 -124.32434082 200.38092041 C-120.91378098 198.62364839 -117.50326499 196.86629128 -114.09277344 195.10888672 C-107.91695096 191.92658116 -101.74071492 188.74507838 -95.56451416 185.56350708 C-92.12632622 183.79237018 -88.68816442 182.02118255 -85.25 180.25 C-83.87500013 179.54166642 -82.50000013 178.83333309 -81.125 178.125 C-80.444375 177.774375 -79.76375 177.42375 -79.0625 177.0625 C-77 176 -74.9375 174.9375 -72.875 173.875 C-71.85419846 173.34913048 -71.85419846 173.34913048 -70.81277466 172.81263733 C-69.43686365 172.10383746 -68.06094812 171.39504638 -66.68502808 170.68626404 C-63.26142952 168.92264036 -59.837908 167.15886747 -56.41455078 165.39477539 C-50.06184895 162.12135706 -43.70844498 158.84932659 -37.35235596 155.58248901 C-34.40168326 154.06581859 -31.45143775 152.54831822 -28.5012207 151.03076172 C-27.11617803 150.31859946 -25.73093412 149.60682838 -24.34545898 148.89550781 C-22.40424613 147.89883113 -20.46376183 146.9007489 -18.5234375 145.90234375 C-17.59812225 145.42763138 -17.59812225 145.42763138 -16.65411377 144.94332886 C-13.33804638 143.23475364 -10.04784311 141.48809997 -6.77832031 139.69189453 C-6.08928619 139.31561417 -5.40025208 138.9393338 -4.69033813 138.551651 C-3.36519012 137.8255708 -2.04369021 137.09278209 -0.72640991 136.3525238 C0.81757842 135.50805032 2.40591721 134.74561082 4 134 C4.66 134.33 5.32 134.66 6 135 C-9.77724618 145.58706039 -25.75389371 155.85024002 -41.76123047 166.08520508 C-50.52785144 171.69229261 -59.27048333 177.33537838 -68 183 C-77.74899351 189.32616461 -87.51972033 195.61677397 -97.3125 201.875 C-104.89442619 206.72058765 -112.46247215 211.58562404 -120 216.5 C-128.60741087 222.1119266 -137.25780696 227.65507139 -145.91601562 233.18823242 C-154.63192348 238.75964878 -163.32244582 244.36909706 -172 250 C-181.74899351 256.32616461 -191.51972033 262.61677397 -201.3125 268.875 C-208.89442619 273.72058765 -216.46247215 278.58562404 -224 283.5 C-232.60741087 289.1119266 -241.25780696 294.65507139 -249.91601562 300.18823242 C-258.63192348 305.75964878 -267.32244582 311.36909706 -276 317 C-285.74899351 323.32616461 -295.51972033 329.61677397 -305.3125 335.875 C-313.69982581 341.23531628 -322.06358854 346.62929317 -330.40161133 352.06591797 C-338.14613504 357.10918774 -345.93425433 362.08345701 -353.72265625 367.05859375 C-360.16673333 371.17805897 -366.59330744 375.32265669 -373 379.5 C-381.60739304 385.1119536 -390.25780727 390.65507159 -398.91601562 396.18823242 C-406.96818517 401.33537141 -414.99987787 406.51298347 -423.01708984 411.71435547 C-425.04813244 413.03120727 -427.08049055 414.34600473 -429.11328125 415.66015625 C-430.15053345 416.33087158 -430.15053345 416.33087158 -431.20874023 417.01513672 C-432.59987896 417.91436414 -433.99131298 418.81313492 -435.38305664 419.71142578 C-439.41574512 422.3171055 -443.43543374 424.94136223 -447.4453125 427.58203125 C-448.35885498 428.18160645 -449.27239746 428.78118164 -450.21362305 429.39892578 C-452.00400997 430.57454419 -453.79201259 431.75380326 -455.57739258 432.93701172 C-456.79011841 433.73196045 -456.79011841 433.73196045 -458.02734375 434.54296875 C-458.74656006 435.01758545 -459.46577637 435.49220215 -460.20678711 435.98120117 C-462 437 -462 437 -464 437 C-464.66 461.75 -465.32 486.5 -466 512 C-458.719375 508.2875 -451.43875 504.575 -443.9375 500.75 C-441.69316162 499.6062793 -439.44882324 498.46255859 -437.13647461 497.28417969 C-426.10451453 491.65731211 -415.09888851 485.98350847 -404.12501526 480.24415588 C-396.42286471 476.21626481 -388.7010595 472.2280826 -380.96746826 468.26095581 C-377.23782143 466.34761207 -373.50955646 464.43157891 -369.78125 462.515625 C-369.03475189 462.1320433 -368.28825378 461.74846161 -367.51913452 461.35325623 C-360.46461352 457.72716067 -353.41874529 454.08447316 -346.375 450.4375 C-336.17236101 445.15557785 -325.96387074 439.88517186 -315.75 434.625 C-315.06343323 434.27140411 -314.37686646 433.91780823 -313.66949463 433.55349731 C-308.07855016 430.67415026 -302.48728024 427.79543542 -296.89599609 424.91674805 C-292.01384577 422.40312642 -287.13182281 419.88925765 -282.25 417.375 C-281.56329224 417.02133362 -280.87658447 416.66766724 -280.16906738 416.30328369 C-269.42383039 410.76878791 -258.68621321 405.21970106 -247.95214844 399.66357422 C-238.10623413 394.56812406 -228.25113216 389.49060738 -218.39447021 384.41598511 C-208.79903388 379.47561288 -199.20921204 374.52461422 -189.625 369.5625 C-178.17825459 363.63653003 -166.71796238 357.73721019 -155.25354004 351.84552002 C-144.11058698 346.11864794 -132.97730831 340.37350663 -121.8515625 334.61328125 C-112.74038953 329.89714546 -103.62149889 325.19612955 -94.5 320.5 C-82.98344417 314.57067586 -71.47385609 308.62813634 -59.97070312 302.67285156 C-53.5155503 299.33172336 -47.05688563 295.99753764 -40.59375 292.671875 C-39.8838089 292.30645599 -39.1738678 291.94103699 -38.44241333 291.56454468 C-34.89595992 289.73931136 -31.34877107 287.91553236 -27.80029297 286.09423828 C-21.62615359 282.92214211 -15.46623318 279.73122494 -9.3515625 276.4453125 C-8.37058594 275.9203418 -7.38960937 275.39537109 -6.37890625 274.85449219 C-4.59811312 273.8977895 -2.82172026 272.93283046 -1.05078125 271.95800781 C-0.28378906 271.54647461 0.48320313 271.13494141 1.2734375 270.7109375 C1.92747559 270.35306152 2.58151367 269.99518555 3.25537109 269.62646484 C5 269 5 269 8 270 C7.04222656 270.59425781 6.08445312 271.18851563 5.09765625 271.80078125 C-2.6533307 276.62112033 -10.36040408 281.50113342 -18.01416016 286.47436523 C-24.42741174 290.63859989 -30.86854467 294.75847553 -37.3125 298.875 C-44.89451854 303.72044147 -52.46247353 308.58562495 -60 313.5 C-68.61319745 319.11569938 -77.26926367 324.66280567 -85.93359375 330.19921875 C-91.80031698 333.9490086 -97.6591621 337.71002216 -103.5 341.5 C-110.41802195 345.98893641 -117.36328625 350.43452767 -124.3125 354.875 C-131.89445499 359.72054197 -139.4624726 364.58562434 -147 369.5 C-155.60741087 375.1119266 -164.25780696 380.65507139 -172.91601562 386.18823242 C-181.63192348 391.75964878 -190.32244582 397.36909706 -199 403 C-209.90033608 410.07327585 -220.83115335 417.09735064 -231.77929688 424.09643555 C-238.35831244 428.30407308 -244.92418643 432.5308959 -251.4753418 436.78173828 C-257.73700038 440.84006777 -264.02477542 444.85721209 -270.3125 448.875 C-277.89445499 453.72054197 -285.4624726 458.58562434 -293 463.5 C-301.61319745 469.11569938 -310.26926367 474.66280567 -318.93359375 480.19921875 C-324.80031698 483.9490086 -330.6591621 487.71002216 -336.5 491.5 C-343.41802195 495.98893641 -350.36328625 500.43452767 -357.3125 504.875 C-364.89445499 509.72054197 -372.4624726 514.58562434 -380 519.5 C-388.60741087 525.1119266 -397.25780696 530.65507139 -405.91601562 536.18823242 C-415.32107703 542.20017218 -424.69750221 548.25528264 -434.05761719 554.33691406 C-435.45790316 555.24667482 -436.85862353 556.1557673 -438.25976562 557.06420898 C-439.65868328 557.9724398 -441.05585305 558.88336908 -442.45117188 559.79711914 C-446.33646654 562.32914439 -450.2602737 564.7618307 -454.2578125 567.11328125 C-455.13131348 567.63672119 -456.00481445 568.16016113 -456.90478516 568.69946289 C-458.59874816 569.71153806 -460.30389095 570.70519566 -462.02099609 571.67749023 C-463.17075928 572.37080444 -463.17075928 572.37080444 -464.34375 573.078125 C-465.02630859 573.47418945 -465.70886719 573.87025391 -466.41210938 574.27832031 C-468.81234093 576.8807854 -468.78755058 579.61103938 -469 583 C-469.06094849 583.88007721 -469.12189697 584.76015442 -469.18469238 585.66690063 C-469.38702273 588.87464962 -469.5558096 592.08298273 -469.71875 595.29296875 C-469.78155151 596.47538651 -469.84435303 597.65780426 -469.90905762 598.87605286 C-470.10898487 602.64638689 -470.30480786 606.41691809 -470.5 610.1875 C-470.69564194 613.94020232 -470.89222878 617.69284782 -471.09094238 621.44538879 C-471.21417337 623.77495047 -471.33562661 626.10460716 -471.45495605 628.43437195 C-471.83429947 635.63668053 -472.3593279 642.81623669 -473 650 C-471.92357742 649.44094215 -471.92357742 649.44094215 -470.82540894 648.87059021 C-456.4033918 641.38094162 -441.96856488 633.91670803 -427.51980591 626.47879028 C-417.84113057 621.49626206 -408.16744398 616.50428475 -398.5 611.5 C-387.47254635 605.79193006 -376.4363832 600.10095124 -365.39648438 594.41699219 C-355.75904116 589.45482956 -346.12669513 584.48298096 -336.5 579.5 C-325.47253541 573.79195115 -314.43638325 568.10095127 -303.39648438 562.41699219 C-293.75904116 557.45482956 -284.12669513 552.48298096 -274.5 547.5 C-263.47186902 541.79160621 -252.43510021 536.1001637 -241.39447021 530.41598511 C-231.79903388 525.47561288 -222.20921204 520.52461422 -212.625 515.5625 C-201.17825459 509.63653003 -189.71796238 503.73721019 -178.25354004 497.84552002 C-167.11058698 492.11864794 -155.97730831 486.37350663 -144.8515625 480.61328125 C-135.74038953 475.89714546 -126.62149889 471.19612955 -117.5 466.5 C-107.16125808 461.17707594 -96.82708005 455.845515 -86.5 450.5 C-76.87148667 445.5160779 -67.23730285 440.54332809 -57.59802246 435.58026123 C-51.39810724 432.38795601 -45.1988699 429.19433452 -39 426 C-38.32638428 425.65287964 -37.65276855 425.30575928 -36.95874023 424.94812012 C-33.00510533 422.9104702 -29.05224155 420.87133545 -25.1003418 418.83032227 C-23.32575303 417.91411091 -21.55058461 416.99902254 -19.77539062 416.08398438 C-18.67904297 415.51744141 -17.58269531 414.95089844 -16.453125 414.3671875 C-15.39544922 413.8215918 -14.33777344 413.27599609 -13.24804688 412.71386719 C-10.94207015 411.49709354 -8.66351893 410.2599719 -6.39257812 408.98144531 C-5.80095886 408.65161652 -5.2093396 408.32178772 -4.59979248 407.98196411 C-2.95236849 407.05986309 -1.31142324 406.12621486 0.32910156 405.19189453 C3 404 3 404 6 405 C5.43829102 405.35602295 4.87658203 405.7120459 4.29785156 406.07885742 C-5.76985794 412.46358232 -15.82694887 418.86232793 -25.8125 425.375 C-34.48753238 431.03293347 -43.20542077 436.62204499 -51.93286133 442.19873047 C-57.79981501 445.94870487 -63.6588983 449.70988952 -69.5 453.5 C-76.48119129 458.02950976 -83.48849165 462.51758322 -90.5 467 C-100.3547014 473.30072808 -110.18803733 479.63297442 -120 486 C-130.90033608 493.07327585 -141.83115335 500.09735064 -152.77929688 507.09643555 C-158.6970098 510.88113415 -164.6071721 514.67667714 -170.5 518.5 C-178.57022593 523.73603944 -186.67598475 528.91607597 -194.78125 534.09765625 C-201.35959229 538.30492128 -207.9248305 542.53131382 -214.4753418 546.78173828 C-220.73700038 550.84006777 -227.02477542 554.85721209 -233.3125 558.875 C-240.89445499 563.72054197 -248.4624726 568.58562434 -256 573.5 C-264.61319745 579.11569938 -273.26926367 584.66280567 -281.93359375 590.19921875 C-287.80031698 593.9490086 -293.6591621 597.71002216 -299.5 601.5 C-306.41802195 605.98893641 -313.36328625 610.43452767 -320.3125 614.875 C-327.89445499 619.72054197 -335.4624726 624.58562434 -343 629.5 C-351.61319745 635.11569938 -360.26926367 640.66280567 -368.93359375 646.19921875 C-374.80031722 649.94900875 -380.65914439 653.7100492 -386.5 657.5 C-394.57020128 662.73607704 -402.6759851 667.91607619 -410.78125 673.09765625 C-417.35599285 677.30261921 -423.9182415 681.52578615 -430.46435547 685.77514648 C-435.73509257 689.19230508 -441.02524276 692.57830692 -446.32568359 695.94921875 C-448.5174105 697.35306573 -450.70018448 698.77099372 -452.87353516 700.203125 C-457.42332743 703.18824798 -461.78669042 706.04337912 -466.828125 708.12109375 C-471.16334586 710.02509624 -474.58708939 711.78281434 -477 716 C-479.30186324 724.1892701 -479.45917041 732.8010503 -479.73608398 741.25817871 C-479.98684395 748.85304003 -480.6825406 756.38783398 -481.41687012 763.94894409 C-481.62124446 766.08573473 -481.81339925 768.22324702 -482.00097656 770.36157227 C-482.11666992 771.66795654 -482.23236328 772.97434082 -482.3515625 774.3203125 C-482.45291504 775.46773926 -482.55426758 776.61516602 -482.65869141 777.79736328 C-482.98864615 780.89346226 -483.45471866 783.9351828 -484 787 C-454.8861771 772.11723397 -454.8861771 772.11723397 -425.83813477 757.10668945 C-417.11080726 752.57168551 -408.36975695 748.0637666 -399.625 743.5625 C-389.16177249 738.1760994 -378.70195723 732.78324087 -368.25 727.375 C-367.36172516 726.91539383 -367.36172516 726.91539383 -366.45550537 726.44650269 C-362.30346135 724.29807199 -358.15170288 722.14908986 -354 720 C-349.25018744 717.5413043 -344.50026148 715.08282825 -339.75 712.625 C-339.15795776 712.31866638 -338.56591553 712.01233276 -337.95593262 711.69671631 C-327.44294157 706.2577704 -316.92124954 700.83579692 -306.39758301 695.4175415 C-296.75977235 690.45519803 -287.12705877 685.48316919 -277.5 680.5 C-266.47253541 674.79195115 -255.43638325 669.10095127 -244.39648438 663.41699219 C-234.75904116 658.45482956 -225.12669513 653.48298096 -215.5 648.5 C-205.17291971 643.15448487 -194.83869306 637.82301926 -184.5 632.5 C-174.07857779 627.13417034 -163.66066614 621.76167147 -153.25 616.375 C-152.6576355 616.06850525 -152.065271 615.7620105 -151.45495605 615.44622803 C-147.30309485 613.29788946 -143.15152109 611.14899576 -139 609 C-134.25018744 606.5413043 -129.50026148 604.08282825 -124.75 601.625 C-124.15795776 601.31866638 -123.56591553 601.01233276 -122.95593262 600.69671631 C-112.44294157 595.2577704 -101.92124954 589.83579692 -91.39758301 584.4175415 C-80.58925565 578.85251905 -69.78807034 573.27390751 -58.99267578 567.68383789 C-52.41395863 564.27857074 -45.83076109 560.88225415 -39.2421875 557.49609375 C-37.75064952 556.72916963 -36.25911305 555.96224256 -34.76757812 555.1953125 C-31.92068836 553.73157405 -29.07290709 552.26959014 -26.22460938 550.80859375 C-24.90750696 550.1315982 -23.59044851 549.45451711 -22.2734375 548.77734375 C-21.6456842 548.45579315 -21.01793091 548.13424255 -20.37115479 547.802948 C-15.55077295 545.3209821 -10.83541574 542.67788637 -6.15869141 539.93579102 C-4 539 -4 539 -1 540 C-2.08152344 540.680625 -3.16304687 541.36125 -4.27734375 542.0625 C-16.81058392 549.95924596 -29.29342575 557.93327695 -41.76513672 565.92675781 C-55.73000586 574.87692149 -69.70140584 583.81648998 -83.69873047 592.71582031 C-93.75501374 599.11182594 -103.79069555 605.53995139 -113.82666016 611.96777344 C-120.08934238 615.97843407 -126.35366014 619.9865396 -132.61767578 623.99511719 C-137.86415204 627.35266497 -143.11022235 630.71084365 -148.35546875 634.0703125 C-159.1265173 640.96802832 -169.90516066 647.85339869 -180.69873047 654.71582031 C-190.75501374 661.11182594 -200.79069555 667.53995139 -210.82666016 673.96777344 C-216.05033844 677.31304949 -221.27522441 680.65643813 -226.5 684 C-228.58333925 685.33332409 -230.66667258 686.66665743 -232.75 688 C-236.91666667 690.66666667 -241.08333333 693.33333333 -245.25 696 C-246.2814917 696.66016113 -247.3129834 697.32032227 -248.37573242 698.00048828 C-250.4566007 699.33223097 -252.53749258 700.66393677 -254.6184082 701.99560547 C-259.8646523 705.35297179 -265.11046939 708.71100188 -270.35546875 712.0703125 C-281.1265173 718.96802832 -291.90516066 725.85339869 -302.69873047 732.71582031 C-312.75501374 739.11182594 -322.79069555 745.53995139 -332.82666016 751.96777344 C-338.05033844 755.31304949 -343.27522441 758.65643813 -348.5 762 C-350.58333925 763.33332409 -352.66667258 764.66665743 -354.75 766 C-358.91666667 768.66666667 -363.08333333 771.33333333 -367.25 774 C-368.2814917 774.66016113 -369.3129834 775.32032227 -370.37573242 776.00048828 C-372.4566007 777.33223097 -374.53749258 778.66393677 -376.6184082 779.99560547 C-381.8646523 783.35297179 -387.11046939 786.71100188 -392.35546875 790.0703125 C-403.1265173 796.96802832 -413.90516066 803.85339869 -424.69873047 810.71582031 C-431.57733746 815.09075764 -438.44673019 819.47994782 -445.3125 823.875 C-446.34375 824.5347583 -447.375 825.1945166 -448.4375 825.87426758 C-453.33249935 829.00699115 -458.22522592 832.14312586 -463.11064148 835.29077148 C-464.81042107 836.3856438 -466.51093112 837.47937231 -468.21166992 838.57275391 C-470.33960324 839.94124142 -472.46616225 841.31186928 -474.59106445 842.68505859 C-480.28680238 846.34474639 -486.04042728 849.78853871 -492 853 C-493.37443154 845.20468706 -494.48694579 837.43183112 -495.296875 829.55859375 C-495.41086136 828.47229675 -495.52484772 827.38599976 -495.64228821 826.26678467 C-496.01769477 822.65762611 -496.38515107 819.04774067 -496.75 815.4375 C-496.94358597 813.52549301 -496.94358597 813.52549301 -497.14108276 811.57485962 C-505.68359715 726.63825078 -510.44717712 641.41574395 -516.86645794 460.05079651 C-516.96246914 455.63930917 -517.06622042 451.22807705 -517.17529297 446.81689453 C-517.49743574 433.6308972 -517.71623158 420.44687778 -517.83427429 407.25746155 C-517.92667542 397.28655731 -518.07499776 387.31749518 -518.24804688 377.34765625 C-518.46614067 364.74617875 -518.62659418 352.14485033 -518.73953056 339.54199028 C-518.80520042 332.37829019 -518.89363946 325.21634824 -519.03839111 318.05377197 C-519.17614045 311.23137593 -519.24617783 304.41104874 -519.27297211 297.58732605 C-519.29396217 295.03217348 -519.33759981 292.47709752 -519.40488434 289.92274475 C-519.88997752 270.75049707 -519.88997752 270.75049707 -516.76372719 266.20084381 C-513.33224993 262.97231048 -509.41595847 261.5589394 -505 260 C-502.84145462 258.79882736 -500.70121623 257.56352927 -498.58984375 256.28125 C-496.3736442 255.01863961 -494.15614951 253.75830036 -491.9375 252.5 C-490.72056722 251.80753046 -489.50377374 251.11481605 -488.28710938 250.421875 C-485.77250414 248.98994873 -483.25731788 247.55905131 -480.74169922 246.12890625 C-475.97930283 243.42049285 -471.22291738 240.70159155 -466.46679688 237.98217773 C-464.1467645 236.65567472 -461.82652458 235.32954496 -459.50585938 234.00415039 C-454.24305828 230.99825748 -448.98132687 227.990557 -443.72441101 224.97438049 C-430.46726789 217.36820744 -417.17317498 209.8377917 -403.79931641 202.43774414 C-396.61227958 198.45948747 -389.45405497 194.43424881 -382.3125 190.375 C-373.5968931 185.42557298 -364.80885157 180.62433701 -355.98193359 175.87670898 C-349.08001079 172.1547326 -342.24750365 168.32470552 -335.4375 164.4375 C-326.90731588 159.5758992 -318.27811797 154.95301763 -309.55444336 150.44897461 C-302.98633037 147.05348529 -296.4793961 143.56164123 -290 140 C-279.64010883 134.31125173 -269.17491288 128.83900026 -258.68408203 123.39648438 C-254.69742553 121.32229162 -250.72381239 119.22366028 -246.75 117.125 C-207.54968758 96.46229701 -168.18468001 75.9536487 -128.15625 56.9375 C-123.64589515 54.79196983 -119.14795768 52.62174168 -114.65625 50.4375 C-98.16083808 42.41729311 -81.60791363 34.54526589 -64.93865967 26.89056396 C-62.88462816 25.94700153 -60.83119666 25.00214166 -58.77783203 24.05712891 C-49.21474168 19.65761594 -39.64055661 15.28307848 -30.05474854 10.93328857 C-28.05565536 10.02527925 -26.05773774 9.1147286 -24.06005859 8.20361328 C-20.54571138 6.6022117 -17.02365831 5.01831842 -13.5 3.4375 C-12.46786377 2.96618652 -11.43572754 2.49487305 -10.37231445 2.00927734 C-9.43476318 1.59242676 -8.49721191 1.17557617 -7.53125 0.74609375 C-6.72236328 0.38185303 -5.91347656 0.0176123 -5.08007812 -0.35766602 C-3 -1 -3 -1 0 0 Z " fill="#000000" transform="translate(1201,388)"/>
<path d="M0 0 C0.33 0.66 0.66 1.32 1 2 C0.55422607 2.32049316 0.10845215 2.64098633 -0.35083008 2.97119141 C-9.10218924 9.26718132 -17.82973823 15.59268015 -26.5 22 C-34.87610986 28.18787257 -43.30508369 34.29900593 -51.75732422 40.38232422 C-54.0306298 42.02209373 -56.29912929 43.66831309 -58.56640625 45.31640625 C-66.25677149 50.90177153 -73.98407915 56.41575718 -81.83398438 61.77490234 C-87.12821362 65.39037868 -92.37971537 69.06395878 -97.625 72.75 C-108.34786031 80.26908506 -119.15541785 87.65780686 -130 95 C-130.76018433 95.51487976 -131.52036865 96.02975952 -132.30358887 96.5602417 C-174.73069323 125.29346523 -174.73069323 125.29346523 -193.56298828 137.42773438 C-196.98577831 139.635986 -200.39872751 141.85925577 -203.81225586 144.08178711 C-207.10618688 146.22596456 -210.40256692 148.36635661 -213.69921875 150.50634766 C-215.18641856 151.47182818 -216.67341211 152.43762654 -218.16015625 153.40380859 C-230.38899918 161.34969929 -242.68386202 169.19020405 -255 177 C-255.80695313 177.51175781 -256.61390625 178.02351562 -257.4453125 178.55078125 C-278.42838884 191.84941993 -299.52124336 204.96780341 -320.69140625 217.96630859 C-324.0360572 220.02216326 -327.37781733 222.08264031 -330.71875 224.14453125 C-341.19367026 230.60712825 -351.6809388 237.04382456 -362.24804688 243.35473633 C-368.87098105 247.3124565 -375.46447078 251.31763335 -382.05462646 255.32955933 C-393.58829487 262.34933856 -405.17499891 269.27202049 -416.81152344 276.12011719 C-422.78692593 279.64313397 -428.75328828 283.18139739 -434.71887207 286.7210083 C-436.13912739 287.56348835 -437.55961326 288.40557987 -438.98034668 289.24725342 C-440.98483396 290.43476081 -442.98867975 291.62334084 -444.9921875 292.8125 C-445.61786621 293.18347809 -446.24354492 293.55445618 -446.88818359 293.93667603 C-450.23396506 295.92675179 -453.54241009 297.96275505 -456.8203125 300.0625 C-460 302 -460 302 -462 302 C-461.99574509 303.17403885 -461.99149017 304.3480777 -461.98710632 305.55769348 C-461.89103674 334.89430169 -462.13583313 364.20888949 -462.74700165 393.53908157 C-462.81408938 396.76389947 -462.87981172 399.98874328 -462.94537354 403.21359253 C-464.81587719 494.62682559 -468.00188453 586.0257061 -485.75 810.5625 C-485.8622504 811.62014368 -485.8622504 811.62014368 -485.97676849 812.6991539 C-486.47269625 817.36396958 -486.976339 822.02789344 -487.484375 826.69140625 C-487.60811493 827.83717133 -487.73185486 828.9829364 -487.85934448 830.16342163 C-488.73992191 838.13469816 -489.82525874 846.06695082 -491 854 C-492.97058651 851.04412023 -493.31440693 850.04165371 -493.68261719 846.67724609 C-493.83388313 845.34468277 -493.83388313 845.34468277 -493.98820496 843.98519897 C-494.09006607 843.00781769 -494.19192719 842.0304364 -494.296875 841.0234375 C-494.46785454 839.46636581 -494.46785454 839.46636581 -494.64228821 837.87783813 C-495.02205852 834.37793007 -495.38721026 830.87670712 -495.75 827.375 C-495.87905731 826.14765137 -496.00811462 824.92030273 -496.14108276 823.65576172 C-504.63509954 742.56147618 -509.42026891 661.11591213 -515.91467285 498.15393066 C-515.99469732 495.19600187 -516.07669676 492.23813453 -516.15917969 489.28027344 C-516.47438948 477.84579564 -516.7229746 466.41076079 -516.94140625 454.97406006 C-517.00278911 451.85843247 -517.06931731 448.74294436 -517.13671875 445.62744141 C-517.34987975 435.60237505 -517.55339625 425.57805582 -517.64501953 415.55102539 C-517.65154856 414.85673022 -517.65807758 414.16243505 -517.66480446 413.44710064 C-517.72256339 407.29683075 -517.72256339 407.29683075 -517.74646378 404.5423336 C-517.85673699 392.39128549 -518.14860283 380.25115236 -518.51001453 368.10506916 C-518.81652632 357.61002612 -519.03580025 347.11481964 -519.20745373 336.6167326 C-519.31934254 330.00486582 -519.47136787 323.39915648 -519.71707153 316.790802 C-519.95016012 310.48910311 -520.07644538 304.19365395 -520.12680435 297.88793564 C-520.1642158 295.54024714 -520.23985612 293.19280993 -520.35647202 290.8477211 C-521.05895539 276.17405698 -521.05895539 276.17405698 -518 270 C-512.61269721 264.4163498 -505.64354119 261.22617398 -498.6163969 258.16689491 C-495.14197619 256.61732732 -491.96788758 254.75510144 -488.7109375 252.79296875 C-486.59994124 251.5894202 -484.48796689 250.38758551 -482.375 249.1875 C-481.20131626 248.51921813 -480.02773556 247.85075528 -478.85424805 247.18212891 C-477.04132491 246.14923818 -475.22831542 245.11650193 -473.41490173 244.08447266 C-469.22971061 241.70245695 -465.04916069 239.31245554 -460.87109375 236.91796875 C-447.62175785 229.32669802 -434.33607755 221.80450347 -421.00390625 214.359375 C-415.1984219 211.11571144 -409.41055764 207.84153267 -403.625 204.5625 C-391.38426848 197.63195405 -379.09025573 190.79849622 -366.78302002 183.98687744 C-364.97613415 182.98679058 -363.16945893 181.9863239 -361.36279297 180.98583984 C-344.95596726 171.90231906 -328.50818077 162.89833176 -312 154 C-310.97374512 153.44634766 -309.94749023 152.89269531 -308.89013672 152.32226562 C-302.3783833 148.80954365 -295.86331368 145.3030431 -289.34619141 141.80029297 C-285.99335005 139.99642224 -282.64305617 138.1878854 -279.29296875 136.37890625 C-265.26596711 128.81848796 -251.16437088 121.42205007 -236.98022461 114.16088867 C-235.6833677 113.49670559 -234.38658094 112.83238553 -233.08984375 112.16796875 C-232.4822928 111.85670138 -231.87474184 111.54543402 -231.24878025 111.22473431 C-226.99545368 109.0397642 -222.76079354 106.8220998 -218.5355463 104.58336926 C-207.86733601 98.93517572 -197.1119013 93.47426363 -186.31640625 88.07421875 C-184.48247189 87.15563616 -182.64856446 86.23699981 -180.81468201 85.3183136 C-176.99768036 83.40684837 -173.17988007 81.49698938 -169.36157227 79.58813477 C-165.51024629 77.6625123 -161.66033947 75.73409935 -157.81176758 73.80297852 C-137.94804251 63.83633424 -118.08830167 53.91415536 -97.86303711 44.69775391 C-91.52147474 41.80418615 -85.26046972 38.75170677 -79 35.6875 C-64.73815727 28.74919722 -50.23848537 22.3642842 -35.72680664 15.97065735 C-27.88599562 12.51430655 -20.06671725 9.01042339 -12.25 5.5 C-10.99366561 4.93616836 -9.7373184 4.37236528 -8.48095703 3.80859375 C-5.65372678 2.53960591 -2.82672536 1.270112 0 0 Z " fill="#000000" transform="translate(954,243)"/>
<path d="M0 0 C0 0.66 0 1.32 0 2 C-1.45849609 3.3059082 -1.45849609 3.3059082 -3.5234375 4.80078125 C-4.67017944 5.63814819 -4.67017944 5.63814819 -5.84008789 6.49243164 C-6.67660889 7.0930542 -7.51312988 7.69367676 -8.375 8.3125 C-9.66361938 9.24920532 -9.66361938 9.24920532 -10.97827148 10.20483398 C-13.64765678 12.14289424 -16.32339237 14.07193099 -19 16 C-20.54590747 17.11932976 -22.09149758 18.239098 -23.63671875 19.359375 C-27.34200012 22.04291669 -31.05309385 24.71829189 -34.76611328 27.39111328 C-37.76224029 29.54897962 -40.75539623 31.71094481 -43.74829102 33.87329102 C-45.24721992 34.95616679 -46.74640544 36.03868743 -48.24584961 37.12084961 C-52.02479066 39.84837352 -55.80047295 42.58021999 -59.5703125 45.3203125 C-67.26207432 50.90511451 -74.9898058 56.41998326 -82.84057617 61.77929688 C-87.23817254 64.78227146 -91.60795527 67.82178088 -95.96362305 70.88525391 C-107.20525736 78.79089746 -118.54518434 86.54550639 -129.92871094 94.24511719 C-132.9411586 96.28279953 -135.95186258 98.32303755 -138.96191406 100.36425781 C-178.00444304 126.83609051 -178.00444304 126.83609051 -196.93310547 138.68994141 C-200.09750357 140.69563007 -203.20649463 142.7804319 -206.3125 144.875 C-217.07423705 152.12158921 -228.05813496 159.03010106 -239 166 C-240.94401818 167.23957116 -242.88802889 168.47915403 -244.83203125 169.71875 C-250.21793289 173.15122799 -255.60782301 176.57738985 -261 180 C-261.81130371 180.5151416 -262.62260742 181.0302832 -263.45849609 181.56103516 C-275.03962371 188.90982565 -286.68031973 196.15859913 -298.3515625 203.36328125 C-300.96548004 204.97866687 -303.57691779 206.59798068 -306.1875 208.21875 C-319.07985696 216.22069296 -332.02872216 224.12675488 -345 232 C-347.23179892 233.3554225 -349.46356887 234.71089271 -351.6953125 236.06640625 C-355.21191512 238.20230116 -358.72878065 240.33775957 -362.24658203 242.47167969 C-368.16355174 246.0612373 -374.07742856 249.65568756 -379.984375 253.26171875 C-394.43299226 262.07613815 -408.97417484 270.71560627 -423.58984375 279.25 C-432.16376315 284.25797378 -440.67801305 289.36039297 -449.15234375 294.53515625 C-449.84730957 294.95732422 -450.54227539 295.37949219 -451.25830078 295.81445312 C-452.593632 296.6257454 -453.92677345 297.44065679 -455.25732422 298.25976562 C-459.77477523 301 -459.77477523 301 -462 301 C-461.98428955 302.59303955 -461.98428955 302.59303955 -461.96826172 304.21826172 C-461.14625833 398.43104402 -464.43494769 492.86816188 -485.75 809.5 C-485.8622504 810.55459223 -485.8622504 810.55459223 -485.97676849 811.63048935 C-489.05694532 840.51015208 -489.05694532 840.51015208 -491 854 C-493.17094614 850.74358079 -493.39532075 849.22274858 -493.7902832 845.40112305 C-493.91433029 844.23749237 -494.03837738 843.07386169 -494.16618347 841.87496948 C-494.29310074 840.60009674 -494.42001801 839.325224 -494.55078125 838.01171875 C-494.69056766 836.66319871 -494.83094703 835.31474001 -494.97187805 833.96633911 C-495.35138661 830.30797605 -495.7190103 826.6485131 -496.08313751 822.98859024 C-496.31360705 820.67639344 -496.54658558 818.36446155 -496.7802124 816.05258179 C-505.61389986 728.49620952 -510.65726716 640.57925324 -515.91467285 495.20739746 C-515.99427079 492.21535752 -516.07630485 489.22339601 -516.15917969 486.23144531 C-516.47919313 474.55929993 -516.73077339 462.88664454 -516.94140625 451.21203613 C-517.00441131 447.75817745 -517.07057995 444.30438597 -517.13671875 440.85058594 C-517.34774501 429.57143923 -517.55335797 418.29333184 -517.640625 407.01245117 C-517.65970966 404.66250465 -517.67903691 402.3125604 -517.6986084 399.96261787 C-517.71212528 398.33356624 -517.72522206 396.70451107 -517.73791504 395.0754528 C-517.83819166 383.02687385 -518.13801707 370.99411123 -518.55186558 358.95228672 C-518.8815699 349.2328117 -519.12209307 339.51321058 -519.31107998 329.79000759 C-519.43296916 323.74759596 -519.59876975 317.71329071 -519.86795044 311.67550659 C-521.54712343 273.0871882 -521.54712343 273.0871882 -515.78521729 265.6416626 C-510.27811478 260.50344874 -504.06886124 258.00639935 -496.91891479 255.90765381 C-492.99162651 254.6864403 -489.99040666 252.88469195 -486.515625 250.6953125 C-484.42774953 249.50403996 -482.33921799 248.31391648 -480.25 247.125 C-479.08546539 246.46121465 -477.92099826 245.79731091 -476.7565918 245.13330078 C-474.95895887 244.10821454 -473.16127696 243.08321543 -471.36332703 242.0586853 C-467.19869254 239.68524898 -463.03788187 237.3052114 -458.87890625 234.921875 C-444.6662873 226.77940081 -430.41121121 218.71684778 -416.10742188 210.73535156 C-411.82786171 208.34541491 -407.55232458 205.94832376 -403.27661133 203.55151367 C-393.80159474 198.24075428 -384.31993774 192.94239638 -374.8203125 187.67578125 C-371.14498323 185.63767258 -367.47430314 183.5913462 -363.8046875 181.54296875 C-350.32057522 174.02288866 -336.78232366 166.6170959 -323.17578125 159.3203125 C-317.55869706 156.30635206 -311.96471716 153.25181804 -306.375 150.1875 C-286.69628919 139.42114301 -266.85463848 128.94499194 -246.93237305 118.63696289 C-241.74162609 115.9509426 -236.56220196 113.24476854 -231.39318848 110.51721191 C-220.86106352 104.9604081 -210.28824836 99.48713269 -199.6875 94.0625 C-198.81780579 93.61722961 -197.94811157 93.17195923 -197.05206299 92.7131958 C-171.45392782 79.61344103 -145.79725442 66.62611739 -119.80078125 54.33203125 C-115.6022344 52.33523282 -111.41951576 50.30598833 -107.23486328 48.28027344 C-85.10252043 37.57565905 -62.77264434 27.32174933 -40.375 17.1875 C-39.49447968 16.78907898 -38.61395935 16.39065796 -37.70675659 15.98016357 C-32.63886951 13.68824832 -27.5683405 11.4023047 -22.49499512 9.12249756 C-20.79452259 8.35745547 -19.09476215 7.5908291 -17.39562988 6.82281494 C-14.88249098 5.68699124 -12.36727813 4.55588404 -9.8515625 3.42578125 C-9.08830658 3.07960251 -8.32505066 2.73342377 -7.53866577 2.37675476 C-2.22795937 0 -2.22795937 0 0 0 Z " fill="#000000" transform="translate(707,101)"/>
<path d="M0 0 C0.66 0.33 1.32 0.66 2 1 C-12.33862028 12.86898645 -27.67541333 23.52757544 -42.77490234 34.39550781 C-44.99498623 35.99638463 -47.21098549 37.60275431 -49.42578125 39.2109375 C-59.69911532 46.66540337 -70.0631878 53.98096011 -80.4765625 61.23828125 C-82.96696962 62.97694009 -85.45297645 64.72169614 -87.9375 66.46875 C-99.56740656 74.64373742 -111.27110167 82.70333124 -123.04193115 90.67401123 C-124.4412068 91.62158965 -125.84031764 92.56941146 -127.23931885 93.51739502 C-151.36999973 109.86810916 -175.56549483 126.1063736 -200 142 C-200.8554541 142.5573584 -201.7109082 143.1147168 -202.59228516 143.68896484 C-207.38401846 146.80961851 -212.18728816 149.91180827 -217 153 C-217.91201172 153.58523438 -218.82402344 154.17046875 -219.76367188 154.7734375 C-233.64246642 163.67445448 -247.53894036 172.54783005 -261.45800781 181.38574219 C-263.09837759 182.42743686 -264.7383789 183.46971208 -266.37792969 184.51269531 C-278.37275207 192.14113772 -290.45999617 199.61360794 -302.57421875 207.05078125 C-308.28861565 210.55956187 -313.98988712 214.08905656 -319.6875 217.625 C-329.72182942 223.84573044 -339.80302842 229.98794533 -349.89550781 236.11376953 C-353.11725592 238.07124247 -356.33616827 240.0333169 -359.5546875 241.99609375 C-374.19452648 250.91591828 -388.90018626 259.71856653 -403.64971924 268.45574951 C-404.633284 269.03839569 -404.633284 269.03839569 -405.63671875 269.6328125 C-406.28131042 270.01463684 -406.9259021 270.39646118 -407.59002686 270.78985596 C-411.23871909 272.95232733 -414.8826322 275.12241142 -418.51953125 277.3046875 C-419.27591385 277.75681107 -420.03229645 278.20893463 -420.81159973 278.67475891 C-422.35403954 279.60774777 -423.88830956 280.5545973 -425.40834045 281.52366638 C-430.06406997 284.44645841 -434.68807254 286.75255717 -439.77978516 288.83276367 C-452.95041772 294.52530088 -452.95041772 294.52530088 -461.45578003 305.47262573 C-463.44589005 315.08773918 -462.7844266 324.82493721 -462.19728851 334.56669998 C-461.96733099 338.93131768 -461.90173427 343.29815132 -461.82666016 347.66772461 C-461.72387053 353.17532361 -461.60974476 358.68128398 -461.43255615 364.1870575 C-460.85622706 382.22290866 -461.20778301 400.19202772 -461.72476196 418.22518921 C-461.87860765 423.60525823 -462.01063708 428.98573557 -462.1394043 434.36645508 C-464.18402465 518.8869862 -467.46487189 603.41549528 -485.58490753 823.28999329 C-485.81106698 825.36187186 -486.03461228 827.43401979 -486.25775146 829.50622559 C-486.66598271 833.28421601 -487.09101499 837.06019059 -487.51953125 840.8359375 C-487.70037514 842.50615463 -487.70037514 842.50615463 -487.88487244 844.21011353 C-488.06138084 845.71944962 -488.06138084 845.71944962 -488.24145508 847.25927734 C-488.34025467 848.13272797 -488.43905426 849.00617859 -488.54084778 849.90609741 C-489 852 -489 852 -491 854 C-500.69598809 772.47783649 -506.20522333 690.60799802 -512 569 C-512.05694031 567.70064514 -512.11388062 566.40129028 -512.17254639 565.06256104 C-512.92511694 547.71241529 -513.51627842 530.35963684 -514 513 C-514.02037071 512.27307701 -514.04074142 511.54615402 -514.06172943 510.79720306 C-515.40884633 462.59947881 -516.19667665 414.40189389 -516.625 366.1875 C-516.63537922 365.03409874 -516.64575844 363.88069748 -516.65645218 362.69234467 C-516.68696777 359.28236846 -516.71684859 355.87238757 -516.74633789 352.46240234 C-516.76076951 350.80267836 -516.76076951 350.80267836 -516.77549267 349.10942459 C-516.82093464 343.67679272 -516.85795581 338.24431182 -516.87797546 332.81152344 C-516.88622828 330.70296147 -516.89467516 328.59440024 -516.90332031 326.48583984 C-516.9074912 325.45499142 -516.91166208 324.42414299 -516.91595936 323.36205673 C-516.95211306 317.02153747 -517.07083375 310.68807327 -517.25160408 304.35006618 C-517.36445412 300.24313583 -517.44392178 296.13590522 -517.5190239 292.02813148 C-517.56312422 290.10705963 -517.62325579 288.18627911 -517.70055008 286.26625633 C-518.28260226 271.6603953 -518.28260226 271.6603953 -515.14839172 267.60299683 C-512.81285848 266.00643537 -510.64645169 264.97943722 -508 264 C-507.03118896 263.42443359 -506.06237793 262.84886719 -505.06420898 262.25585938 C-503.79299194 261.55686523 -503.79299194 261.55686523 -502.49609375 260.84375 C-501.52091797 260.30363281 -500.54574219 259.76351563 -499.54101562 259.20703125 C-498.51685547 258.64371094 -497.49269531 258.08039063 -496.4375 257.5 C-487.89902575 252.76369672 -479.4178528 247.9474936 -471 243 C-461.77820319 237.58638231 -452.48503956 232.31518234 -443.14453125 227.109375 C-436.57312496 223.44581599 -430.02559833 219.74450243 -423.5 216 C-403.36757199 204.45873871 -383.06020621 193.22329953 -362.76226807 181.97650146 C-361.5782412 181.32041288 -360.39428226 180.6642017 -359.21038818 180.00787354 C-344.626881 171.92311495 -330.01671605 163.89488049 -315.32275391 156.01196289 C-308.46696229 152.33369446 -301.63400569 148.61639797 -294.8125 144.875 C-286.46670093 140.30282873 -278.05262222 135.8754985 -269.60253906 131.49951172 C-263.03725285 128.09031423 -256.53962666 124.5733865 -250.0625 121 C-241.50912302 116.29006855 -232.84866673 111.83933852 -224.08422852 107.53515625 C-219.07182994 105.06652883 -214.10167616 102.5348399 -209.16917419 99.91105652 C-194.88348827 92.31700504 -180.39679995 85.12248725 -165.92285156 77.89624023 C-162.04142319 75.95836542 -158.1618131 74.01688158 -154.28267288 72.07443142 C-137.26380313 63.55426356 -120.2114177 55.12633932 -103 47 C-101.53856359 46.30659904 -100.07729219 45.61285017 -98.61621094 44.91870117 C-77.17240586 34.73930695 -55.63349678 24.76955399 -34 15 C-33.21389343 14.64454102 -32.42778687 14.28908203 -31.61785889 13.92285156 C-26.82535259 11.7568558 -22.02841616 9.60117553 -17.22509766 7.45925903 C-15.70815867 6.78171589 -14.19235408 6.10162685 -12.67773438 5.41891479 C-10.58926339 4.47862048 -8.49656545 3.54849461 -6.40234375 2.62109375 C-4.61558228 1.82336548 -4.61558228 1.82336548 -2.79272461 1.00952148 C-1.41032593 0.50980835 -1.41032593 0.50980835 0 0 Z " fill="#000000" transform="translate(1076,315)"/>
<path d="M0 0 C0.33 0.66 0.66 1.32 1 2 C0.175 2.58265625 -0.65 3.1653125 -1.5 3.765625 C-7.98353972 8.3617808 -14.40699737 13.02399976 -20.75 17.8125 C-28.65809631 23.77770029 -36.6774687 29.57981643 -44.72216797 35.35888672 C-46.97739015 36.98371024 -49.22600828 38.61725248 -51.47265625 40.25390625 C-59.8581049 46.35533414 -68.32311409 52.30997477 -76.90527344 58.1315918 C-82.24022881 61.76199304 -87.48068581 65.50119397 -92.6875 69.3125 C-100.59572748 75.08999506 -108.70101534 80.54238947 -116.88745117 85.91723633 C-122.64121688 89.70799336 -128.29522683 93.61229551 -133.90625 97.609375 C-143.91553995 104.72364596 -154.16942114 111.45474317 -164.4375 118.1875 C-166.39247388 119.47228065 -168.34730655 120.75727619 -170.30200195 122.04248047 C-175.86537622 125.69899529 -181.43227441 129.35011562 -187 133 C-188.4290569 133.93730607 -189.85809516 134.87464057 -191.28710938 135.81201172 C-198.51689323 140.55339078 -205.75396308 145.28348869 -213 150 C-213.77617676 150.50547363 -214.55235352 151.01094727 -215.35205078 151.53173828 C-227.5110339 159.44379103 -239.74894988 167.23147696 -252 175 C-252.80695313 175.51175781 -253.61390625 176.02351562 -254.4453125 176.55078125 C-274.87942898 189.50150056 -295.41241905 202.2948724 -316 215 C-316.98661621 215.60924316 -317.97323242 216.21848633 -318.98974609 216.84619141 C-341.89524007 230.98578407 -364.87121381 244.99536326 -388.03634644 258.70516968 C-397.4590499 264.28249502 -406.84035385 269.92205052 -416.1875 275.625 C-426.09825399 281.66551428 -436.05661243 287.61848705 -446.0625 293.5 C-446.69658783 293.87392883 -447.33067566 294.24785767 -447.98397827 294.63311768 C-449.77006686 295.68560652 -451.5584278 296.73410997 -453.34765625 297.78125 C-454.36867432 298.38001953 -455.38969238 298.97878906 -456.44165039 299.59570312 C-459 301 -459 301 -462 302 C-461.99555878 302.82380157 -461.99111755 303.64760315 -461.98654175 304.49636841 C-461.70594514 359.36354469 -462.36714977 414.15660243 -464 469 C-464.03989925 470.34478046 -464.03989925 470.34478046 -464.08060455 471.71672821 C-466.52496558 553.88624862 -470.26870098 635.99852243 -488.68789673 842.2074585 C-488.88598996 843.97989606 -489.07140684 845.75383289 -489.23959351 847.52935791 C-489.42564815 849.36101156 -489.70155873 851.18327101 -490 853 C-490.66 853.33 -491.32 853.66 -492 854 C-502.60125169 767.73853991 -507.65617243 680.941844 -514.89318848 515.84851074 C-514.9876277 512.44578444 -515.08637209 509.04322936 -515.18696594 505.64068222 C-515.82698572 483.93245645 -516.30191801 462.22340666 -516.67308044 440.50897598 C-516.69234085 439.38227367 -516.71160126 438.25557137 -516.73144531 437.09472656 C-516.7512294 435.93339077 -516.77101349 434.77205498 -516.79139709 433.57552719 C-516.91090144 426.69534705 -517.0425811 419.81559064 -517.18786621 412.93591309 C-517.20447428 412.14921006 -517.22108235 411.36250703 -517.23819369 410.55196452 C-517.27253011 408.92689542 -517.30686819 407.30182636 -517.34120786 405.67675734 C-517.68630132 389.31153594 -517.97525299 372.94625694 -518.20146465 356.57894516 C-518.32327039 347.86152211 -518.46752238 339.14568782 -518.66799927 330.4296875 C-518.84038909 322.92764799 -518.96728146 315.42651276 -519.0371635 307.92279065 C-519.07483804 304.03205947 -519.1342966 300.14471399 -519.25013351 296.25545883 C-519.35697064 292.64731562 -519.40233608 289.04360659 -519.4005183 285.43393135 C-519.41524501 283.50216508 -519.49455941 281.57122364 -519.57623386 279.64112854 C-519.53744937 275.99982735 -519.36037032 273.3836175 -518 270 C-514.01948972 266.43691417 -509.82159393 264.31340165 -505 262 C-502.8544162 260.77582517 -500.7163356 259.53829665 -498.58984375 258.28125 C-496.37366494 257.01860321 -494.15616999 255.75826424 -491.9375 254.5 C-490.72277111 253.80898372 -489.5081747 253.11773452 -488.29370117 252.42626953 C-486.41171748 251.35486805 -484.52961005 250.28368874 -482.64698792 249.21340942 C-478.37207849 246.78300511 -474.10232185 244.34377273 -469.8359375 241.8984375 C-457.57115223 234.87059527 -445.27962266 227.89445729 -432.9362793 221.00512695 C-426.47626753 217.39667912 -420.04174121 213.7472697 -413.625 210.0625 C-402.30883033 203.57054074 -390.89804969 197.25148384 -379.48486328 190.93212891 C-376.02768705 189.01535066 -372.57383901 187.09271568 -369.12109375 185.16796875 C-356.37337846 178.06411997 -343.5887494 171.03618969 -330.74609375 164.10546875 C-326.13191887 161.61506998 -321.52781503 159.10685258 -316.92797852 156.59008789 C-303.00003703 148.97028874 -289.00998399 141.46755881 -275 134 C-274.34497498 133.6506842 -273.68994995 133.30136841 -273.01507568 132.94146729 C-253.01187305 122.27571486 -232.926403 111.78220913 -212.74488831 101.457901 C-207.4849025 98.76549664 -202.23501236 96.05406327 -196.98828125 93.3359375 C-159.81092137 74.10024091 -122.23940749 55.59675676 -84.26660156 37.98095703 C-80.39349085 36.18419404 -76.52471681 34.37823568 -72.65634155 32.57130432 C-54.71120466 24.19209912 -36.72437464 15.91629557 -18.625 7.875 C-17.84634583 7.52880615 -17.06769165 7.1826123 -16.26544189 6.82592773 C-14.08674635 5.85839406 -11.90697448 4.89334598 -9.7265625 3.9296875 C-9.08485107 3.64523773 -8.44313965 3.36078796 -7.78198242 3.06771851 C-5.20729448 1.93410496 -2.67119057 0.89039686 0 0 Z " fill="#000000" transform="translate(830,172)"/>
</svg>
